<?xml version="1.0" encoding="UTF-8" standalone="no"?>
<!-- Created with Inkscape (http://www.inkscape.org/) -->

<svg
   xmlns:dc="http://purl.org/dc/elements/1.1/"
   xmlns:cc="http://creativecommons.org/ns#"
   xmlns:rdf="http://www.w3.org/1999/02/22-rdf-syntax-ns#"
   xmlns:svg="http://www.w3.org/2000/svg"
   xmlns="http://www.w3.org/2000/svg"
   xmlns:sodipodi="http://sodipodi.sourceforge.net/DTD/sodipodi-0.dtd"
   xmlns:inkscape="http://www.inkscape.org/namespaces/inkscape"
   width="169.13106mm"
   height="45.667301mm"
   viewBox="0 0 169.13106 45.667301"
   version="1.1"
   id="svg8"
   inkscape:version="0.91 r13725"
   sodipodi:docname="CP block red filled.svg"
   inkscape:export-filename="C:\Users\mirel\OneDrive\Documents\Craft Prospect\Multimedia\CP Logo\Block\CP block red filled w 500px.png"
   inkscape:export-xdpi="75.086548"
   inkscape:export-ydpi="75.086548">
  <defs
     id="defs2" />
  <sodipodi:namedview
     id="base"
     pagecolor="#ffffff"
     bordercolor="#666666"
     borderopacity="1.0"
     inkscape:pageopacity="0.0"
     inkscape:pageshadow="2"
     inkscape:zoom="3.7658915"
     inkscape:cx="305.16007"
     inkscape:cy="-43.355418"
     inkscape:document-units="mm"
     inkscape:current-layer="layer1"
     showgrid="false"
     inkscape:window-width="1368"
     inkscape:window-height="849"
     inkscape:window-x="1912"
     inkscape:window-y="-8"
     inkscape:window-maximized="1"
     inkscape:pagecheckerboard="true"
     fit-margin-top="0"
     fit-margin-left="0"
     fit-margin-right="0"
     fit-margin-bottom="0">
    <inkscape:grid
       type="xygrid"
       id="grid839"
       spacingx="7.9375"
       spacingy="7.9375"
       originx="-10.261046"
       originy="-234.35303" />
  </sodipodi:namedview>
  <metadata
     id="metadata5">
    <rdf:RDF>
      <cc:Work
         rdf:about="">
        <dc:format>image/svg+xml</dc:format>
        <dc:type
           rdf:resource="http://purl.org/dc/dcmitype/StillImage" />
        <dc:title />
      </cc:Work>
    </rdf:RDF>
  </metadata>
  <g
     inkscape:label="Layer 1"
     inkscape:groupmode="layer"
     id="layer1"
     transform="translate(-10.261048,-16.979661)">
    <g
       id="g836"
       transform="matrix(0.32035425,0,0,0.32035425,1.6653798,-1.6129838)">
      <g
         transform="translate(4.5435818,-0.66817384)"
         id="g4569">
        <path
           inkscape:connector-curvature="0"
           id="path4537"
           d="m 87.241186,65.276634 c -1.590667,0.02598 -3.070344,1.410835 -2.760038,3.073199 -0.298948,16.391453 -0.03278,32.796627 -0.420648,49.183047 -0.926039,1.12703 -2.078024,-0.49439 -2.863189,-1.007 -12.21365,-10.03727 -24.224104,-20.325106 -36.503916,-30.280499 -2.215613,-1.50191 -5.318405,1.072616 -4.465876,3.543454 0.970558,2.00593 3.201824,3.044102 4.707782,4.604583 12.219646,10.356592 24.646382,20.474592 36.769788,30.942602 0.746877,1.27696 -1.320445,1.90938 -1.919348,2.73011 -12.801224,10.86339 -25.804323,21.49232 -38.49679,32.47962 -1.479418,0.9328 -1.557113,3.06509 -0.369485,4.25866 1.163936,1.58545 3.580399,1.29991 4.773869,-0.0987 12.504864,-10.18976 24.682053,-20.78228 37.264908,-30.8746 0.942814,-0.41707 1.291521,0.66501 1.132747,1.4087 0.262718,16.37373 0.199229,32.80683 0.239779,49.20319 0.842777,1.62112 3.006146,2.7041 4.644678,1.55081 1.680308,-0.80692 1.393159,-2.87466 1.484662,-4.4204 0.255625,-15.83954 0.03205,-31.7096 0.38344,-47.5325 1.062373,-1.04949 2.118727,1.00214 3.007569,1.3777 12.141552,9.98998 24.089382,20.21873 36.303732,30.11754 2.12926,1.2598 5.11282,-0.98627 4.4204,-3.40031 -0.59136,-1.95905 -2.78101,-2.83137 -4.08117,-4.26114 -12.47877,-10.63985 -25.25718,-20.93593 -37.592774,-31.73925 -0.06328,-1.35165 1.643991,-1.90743 2.399244,-2.82244 12.79006,-10.77754 25.7208,-21.3917 38.4241,-32.269473 2.00956,-1.657414 0.45317,-5.474846 -2.15955,-5.139222 -2.08949,-0.189063 -3.25025,2.043613 -4.84179,2.99407 -11.63145,9.620739 -23.12346,19.442695 -34.82401,28.956955 -0.743948,0.26919 -1.435608,-0.19142 -1.228866,-1.02216 -0.415602,-16.48541 -0.02039,-33.027834 -0.432017,-49.529279 -0.280992,-1.246349 -1.768861,-2.091889 -2.997231,-2.027267 z"
           style="opacity:1;fill:#ffffff;fill-opacity:0.99552906;fill-rule:nonzero;stroke:none;stroke-width:0.02672695;stroke-miterlimit:4;stroke-dasharray:0.16036172, 0.16036172;stroke-dashoffset:0;stroke-opacity:1" />
        <path
           inkscape:connector-curvature="0"
           id="path4535"
           d="m 76.422207,68.760143 c -2.625006,0.07495 -5.54836,0.421283 -7.459493,2.427243 0,10.876338 0,21.752676 0,32.629014 4.377975,3.60554 8.656838,7.33367 13.111345,10.8443 0.217807,-15.184895 0.05579,-30.376667 0.107487,-45.564144 -1.906183,-0.253199 -3.837131,-0.34925 -5.759339,-0.336413 z"
           style="opacity:1;fill:#ffffff;fill-opacity:0.99552906;fill-rule:nonzero;stroke:none;stroke-width:0.02672695;stroke-miterlimit:4;stroke-dasharray:0.16036172, 0.16036172;stroke-dashoffset:0;stroke-opacity:1" />
        <path
           inkscape:connector-curvature="0"
           id="path4539"
           d="m 80.007001,61.205048 c -3.825163,-0.116501 -7.356758,2.201342 -9.39374,5.319573 -0.493694,0.96603 0.770081,1.187883 1.44177,0.803568 3.236606,-0.690401 6.633943,-0.412771 9.871234,-0.213939 0.875961,-0.08423 0.936604,-1.624621 1.748729,-2.133203 0.828728,-0.968587 2.030542,-1.447364 3.134177,-2.016932 -2.126974,-1.0844 -4.368665,-1.963767 -6.80217,-1.759067 z"
           style="opacity:1;fill:#ffffff;fill-opacity:0.99552906;fill-rule:nonzero;stroke:none;stroke-width:0.02672695;stroke-miterlimit:4;stroke-dasharray:0.16036172, 0.16036172;stroke-dashoffset:0;stroke-opacity:1" />
        <path
           inkscape:connector-curvature="0"
           id="path4541"
           d="m 35.69653,81.760382 c -5.955027,-0.09578 -11.134889,5.479401 -10.955388,11.369114 -0.491967,2.111864 0.26267,2.040255 1.708406,0.877683 3.483672,-2.019403 7.528391,-2.352415 11.407572,-3.005499 1.02806,-1.123083 -0.208478,-2.980079 0.761193,-4.222481 0.524849,-1.434266 1.924407,-2.101196 3.019454,-2.979663 0.154953,-1.16726 -1.583044,-1.225751 -2.351794,-1.654164 -1.151027,-0.381207 -2.390018,-0.383847 -3.589443,-0.38499 z"
           style="opacity:1;fill:#ffffff;fill-opacity:0.99552906;fill-rule:nonzero;stroke:none;stroke-width:0.02672695;stroke-miterlimit:4;stroke-dasharray:0.16036172, 0.16036172;stroke-dashoffset:0;stroke-opacity:1" />
        <path
           inkscape:connector-curvature="0"
           id="path4543"
           d="m 39.999626,93.028946 c -4.479404,0.23059 -9.31894,0.524947 -13.160439,3.086632 -0.86552,0.565081 -1.460852,1.779757 -0.541568,2.603976 2.079814,3.211196 5.499791,5.206626 8.243682,7.785636 4.277788,3.42582 8.256402,7.25678 12.785008,10.35228 -0.96809,-2.81397 -3.643845,-4.46131 -5.446284,-6.7004 -0.792168,-0.81643 -1.617755,-1.74883 -0.223137,-0.5958 4.175472,3.1624 8.162071,6.56848 12.375473,9.67641 1.162555,0.0306 0.669607,-1.26643 0.03428,-1.679 -2.693387,-3.29609 -5.575609,-6.44203 -8.140247,-9.84123 4.64318,3.40179 9.024574,7.16202 13.695804,10.51771 1.327155,0.62495 0.692896,-1.06342 0.0894,-1.52084 -2.672922,-3.32496 -5.713717,-6.6033 -8.215519,-9.91361 4.622091,3.35645 8.867526,7.25844 13.500293,10.60517 1.602817,1.20051 1.052658,0.0741 0.374311,-1.00317 -3.026611,-3.54616 -5.663959,-7.50634 -9.479182,-10.27252 C 50.6623,101.76128 45.415308,97.413486 40.207882,93.018611 Z"
           style="opacity:1;fill:#ffffff;fill-opacity:0.99552906;fill-rule:nonzero;stroke:none;stroke-width:0.02672695;stroke-miterlimit:4;stroke-dasharray:0.16036172, 0.16036172;stroke-dashoffset:0;stroke-opacity:1" />
        <path
           inkscape:connector-curvature="0"
           id="path4545"
           d="m 76.318339,127.02945 c -4.698627,0.88367 -9.450546,1.80294 -14.058574,2.96571 -11.298738,9.99036 -23.208483,19.35183 -34.519341,29.35945 -3.339226,3.41732 -4.026165,9.19325 -1.418517,13.21522 1.108902,0.36886 1.849286,-1.24975 2.767768,-1.66837 2.908811,-2.58837 6.190546,-4.81236 8.859946,-7.64631 0.260218,-1.56619 0.636775,-3.33417 2.050005,-4.27881 12.118374,-10.49535 24.635867,-20.5375 36.751243,-31.03583 0.316315,-0.3528 0.04579,-0.95079 -0.43253,-0.91106 z"
           style="opacity:1;fill:#ffffff;fill-opacity:0.99552906;fill-rule:nonzero;stroke:none;stroke-width:0.02672695;stroke-miterlimit:4;stroke-dasharray:0.16036172, 0.16036172;stroke-dashoffset:0;stroke-opacity:1" />
        <path
           inkscape:connector-curvature="0"
           id="path4547"
           d="m 81.323716,145.93424 c -4.144735,3.39192 -8.231746,6.85397 -12.3517,10.27638 -0.0029,10.21074 -0.0065,20.42149 -0.0093,30.63224 2.901682,0.83429 6.165257,1.20602 8.998418,-0.0729 1.672981,-0.826 3.216174,-2.17874 4.220414,-3.6499 0,-12.62163 0,-25.24325 0,-37.86488 -0.285944,0.22635 -0.571887,0.45269 -0.85783,0.67903 z"
           style="opacity:1;fill:#ffffff;fill-opacity:0.99552906;fill-rule:nonzero;stroke:none;stroke-width:0.02672695;stroke-miterlimit:4;stroke-dasharray:0.16036172, 0.16036172;stroke-dashoffset:0;stroke-opacity:1" />
        <path
           inkscape:connector-curvature="0"
           id="path4549"
           d="m 92.482208,137.91716 c 0,3.45095 0,6.90191 0,10.35286 3.408495,1.93931 6.296721,4.71154 9.462382,7.02229 1.76423,1.33786 3.45142,2.79038 5.27935,4.03905 1.33139,-0.0286 0.46112,-1.51002 -0.1695,-1.92185 -2.6649,-3.24359 -5.69808,-6.49212 -8.109059,-9.75548 4.498449,3.42034 8.818919,7.26492 13.406929,10.61641 1.10334,0.17863 0.60194,-1.17371 0.0106,-1.55216 -3.09372,-3.70102 -6.04654,-7.55256 -9.29933,-11.10097 -3.529244,-2.94769 -7.074221,-5.87004 -10.581332,-8.84116 0,0.38033 0,0.76067 0,1.14101 z"
           style="opacity:1;fill:#ffffff;fill-opacity:0.99552906;fill-rule:nonzero;stroke:none;stroke-width:0.02672695;stroke-miterlimit:4;stroke-dasharray:0.16036172, 0.16036172;stroke-dashoffset:0;stroke-opacity:1" />
        <path
           inkscape:connector-curvature="0"
           id="path4551"
           d="m 92.952982,148.8891 c -0.987359,0.75989 -0.200465,2.41922 -0.470774,3.4954 0.06556,1.62415 2.300875,2.20481 3.298074,3.38082 2.047423,1.5821 4.000376,3.30366 6.129778,4.77217 1.4011,-0.22025 0.16634,-1.59126 -0.37012,-2.08338 -2.761077,-3.15342 -5.329483,-6.53386 -8.216439,-9.54692 -0.10669,-0.0654 -0.255825,-0.0487 -0.370519,-0.0181 z"
           style="opacity:1;fill:#ffffff;fill-opacity:0.99552906;fill-rule:nonzero;stroke:none;stroke-width:0.02672695;stroke-miterlimit:4;stroke-dasharray:0.16036172, 0.16036172;stroke-dashoffset:0;stroke-opacity:1" />
        <path
           inkscape:connector-curvature="0"
           id="path4555"
           d="m 123.99553,81.697855 c -3.91032,0.04335 -7.09141,2.710336 -9.85248,5.171716 -7.24371,5.919001 -14.290751,12.091413 -21.649988,17.861499 0.113302,2.98949 -0.222189,6.05123 0.16433,9.00876 0.805524,1.04596 1.812025,-0.72252 2.498288,-1.06712 11.32409,-9.35623 22.48916,-18.999887 33.96202,-28.118183 1.29962,-0.698121 2.39814,-1.283533 0.32401,-1.759582 -1.70527,-0.755856 -3.58113,-1.134978 -5.44618,-1.09709 z"
           style="opacity:1;fill:#ffffff;fill-opacity:0.99552906;fill-rule:nonzero;stroke:none;stroke-width:0.02672695;stroke-miterlimit:4;stroke-dasharray:0.16036172, 0.16036172;stroke-dashoffset:0;stroke-opacity:1" />
      </g>
      <path
         style="fill:#df3f3f;fill-opacity:1;stroke-width:0.11920787"
         d="m 82.674886,200.42194 c -5.70357,-0.90079 -10.22816,-5.23859 -11.38492,-10.91491 -0.24142,-1.18468 -0.24628,-1.5067 -0.24018,-15.92139 0.003,-8.09173 -0.0189,-14.71224 -0.0497,-14.71224 -0.0308,0 -4.83082,3.99182 -10.66676,8.87072 -5.83594,4.87889 -10.921191,9.10695 -11.300545,9.39567 -1.517839,1.15521 -3.028187,1.89593 -4.948388,2.42687 -1.370318,0.37889 -3.935205,0.517 -5.46019,0.29402 -5.994162,-0.87646 -10.64429,-5.47453 -11.619894,-11.4898 -0.707149,-4.36006 0.838442,-8.91828 4.071103,-12.00642 0.449321,-0.42923 7.855638,-6.66714 16.458483,-13.86202 8.602841,-7.19488 15.666071,-13.1213 15.696061,-13.16982 0.03,-0.0485 -7.18822,-6.14651 -16.040467,-13.55108 -8.852248,-7.40456 -16.338238,-13.73318 -16.635532,-14.0636 -2.949267,-3.277839 -4.208845,-7.337269 -3.55234,-11.448666 0.280095,-1.754107 0.604777,-2.73658 1.428729,-4.323266 2.949672,-5.680186 9.531114,-8.545626 15.800028,-6.879044 1.407759,0.37425 3.525023,1.395549 4.605744,2.221661 0.450018,0.343997 5.539678,4.570645 11.310348,9.392549 5.77067,4.821907 10.58611,8.841492 10.70098,8.932432 0.19877,0.15734 0.20854,-0.540365 0.20235,-14.449601 -0.006,-12.723061 0.0176,-14.753671 0.17946,-15.686685 1.44261,-8.314632 9.89287,-13.372487 17.94248,-10.739364 4.02367,1.316192 7.40384,4.657998 8.68234,8.583804 0.71223,2.187008 0.66084,0.964674 0.73065,17.37789 l 0.064,15.053326 10.733074,-8.973722 c 5.9032,-4.935557 11.0798,-9.232872 11.50356,-9.549591 1.06532,-0.796218 3.17148,-1.802728 4.52553,-2.162699 4.09175,-1.087786 8.41284,-0.278869 11.80158,2.209281 0.99412,0.729923 2.55726,2.342668 3.21016,3.31203 3.74996,5.567559 3.01076,12.862646 -1.77479,17.515535 -0.62554,0.6082 -8.13783,6.95454 -16.69398,14.10297 -8.55614,7.14843 -15.56605,13.03438 -15.57756,13.07991 -0.0351,0.13882 17.91645,15.08604 18.42494,15.34137 0.57928,0.29088 12.97031,10.64364 14.09736,11.77841 3.59527,3.61989 4.85464,9.20381 3.19714,14.17583 -0.69434,2.08281 -1.69684,3.7035 -3.27112,5.28819 -2.74811,2.76631 -5.94873,4.103 -9.82331,4.10254 -3.02514,0 -5.90838,-0.94128 -8.21418,-2.68067 -0.44011,-0.33199 -5.54765,-4.57457 -11.3501,-9.42796 -5.80243,-4.85338 -10.617304,-8.86522 -10.699694,-8.9152 -0.11996,-0.0727 -0.1493,2.82717 -0.14728,14.55369 0.002,12.70777 -0.0219,14.78486 -0.18247,15.70543 -1.28176,7.35013 -8.34027,12.38116 -15.73271,11.21362 z m -1.61257,-14.25357 c 1.84246,-0.51776 3.70747,-1.80338 4.82544,-3.32637 l 0.42372,-0.57723 -0.0302,-18.37842 -0.0302,-18.37842 -6.169,5.15438 -6.16901,5.15438 v 14.9855 14.98551 l 1.04307,0.25496 c 0.57369,0.14024 1.36493,0.3044 1.75832,0.36481 1.11532,0.17129 3.31861,0.0501 4.34782,-0.2391 z m 11.83847,-0.99157 c 0.60534,-0.25367 1.17314,-0.79797 1.44481,-1.38502 l 0.25007,-0.54037 0.0596,-24.92594 c 0.0638,-26.67042 0.0265,-25.07262 0.59604,-25.52034 0.29508,-0.23194 0.91245,-0.29461 1.29523,-0.13147 0.1972,0.0841 8.788194,7.20695 19.091104,15.82866 10.30291,8.6217 18.92814,15.79505 19.16716,15.94075 1.69348,1.03231 3.95213,-0.27727 3.95213,-2.29145 0,-0.78423 -0.31232,-1.42467 -1.02409,-2.09996 -0.31899,-0.30264 -9.57134,-8.06554 -20.56079,-17.25089 -14.22092,-11.88633 -20.024274,-16.80558 -20.131604,-17.06468 -0.23638,-0.57069 -0.0766,-1.17728 0.44249,-1.67975 0.2478,-0.23987 9.328544,-7.85373 20.179444,-16.9197 10.85089,-9.065959 19.93646,-16.677206 20.19014,-16.913876 0.94001,-0.876997 1.16593,-2.07456 0.60407,-3.202074 -0.72839,-1.461695 -2.66072,-1.893259 -3.98374,-0.889728 -0.23067,0.17496 -8.62741,7.185729 -18.65943,15.579488 -10.03202,8.39376 -18.452864,15.43573 -18.712984,15.64881 -0.93748,0.76794 -2.18726,0.38767 -2.44866,-0.74505 -0.0653,-0.28293 -0.11119,-10.45205 -0.11288,-25.007679 -0.003,-26.908597 0.0492,-24.966837 -0.69461,-25.760099 -1.00624,-1.07308 -2.96199,-1.044091 -3.89093,0.05767 -0.70831,0.8401 -0.66239,-0.944126 -0.66311,25.762029 -4.8e-4,16.145489 -0.0419,24.738919 -0.12075,25.022769 -0.18656,0.67164 -0.64506,1.05778 -1.25598,1.05778 -0.28074,0 -0.59599,-0.0328 -0.70055,-0.0729 -0.10457,-0.0401 -8.67851,-7.1746 -19.0532,-15.85438 -10.3747,-8.679779 -19.048689,-15.869868 -19.275531,-15.977964 -1.050855,-0.500767 -2.163945,-0.301822 -3.001117,0.536392 -1.100325,1.101696 -1.096158,2.56128 0.01062,3.720456 0.298069,0.31218 9.393128,7.954047 20.211238,16.981926 10.81812,9.02789 19.92411,16.67276 20.23554,16.9886 0.50724,0.51443 0.56624,0.63037 0.56624,1.11291 0,0.38697 -0.0755,0.62623 -0.26822,0.84968 -0.14752,0.17107 -9.38568,7.93896 -20.52925,17.26199 -11.74552,9.82664 -20.401528,17.15168 -20.595332,17.42855 -0.704765,1.00683 -0.555229,2.34828 0.364271,3.26778 0.889219,0.88922 1.998586,1.06518 3.101564,0.49196 0.239849,-0.12465 8.777657,-7.21096 18.972917,-15.74735 10.19525,-8.53639 18.69775,-15.64217 18.89444,-15.79061 0.7726,-0.58307 1.75762,-0.42683 2.1808,0.34591 0.1893,0.34568 0.20748,2.09795 0.26296,25.3454 l 0.0596,24.97405 0.32874,0.50572 c 0.31994,0.49218 0.99681,1.01681 1.46584,1.13613 0.47259,0.12024 1.38373,0.0818 1.75568,-0.0741 z m -56.120089,-18.13809 5.422209,-4.52947 4.77e-4,-0.54119 c 0.0012,-1.42197 0.657839,-2.79598 1.885552,-3.94547 0.445539,-0.41717 9.022751,-7.62486 19.060441,-16.01709 10.0377,-8.39224 18.23289,-15.27689 18.21154,-15.29922 -0.0799,-0.0837 -14.3042,2.89581 -14.34859,3.0055 -0.14035,0.34681 -2.20245,2.10315 -17.414151,14.83203 -12.405938,10.38108 -16.817739,14.13931 -17.381327,14.80643 -0.908494,1.0754 -1.821179,2.86249 -2.191705,4.29148 -0.377439,1.45566 -0.376767,3.82548 0.0015,5.23718 0.313951,1.17173 1.030217,2.78983 1.208615,2.73037 0.06779,-0.0226 2.56324,-2.07935 5.545455,-4.57055 z m 69.825983,-7.9567 c -0.51898,-0.60647 -2.77663,-3.26419 -5.017,-5.90605 l -4.073414,-4.80338 v 1.95195 1.95195 l 4.966524,3.9541 c 2.73157,2.17476 4.98923,3.95411 5.017,3.95411 0.0278,0 -0.37413,-0.49621 -0.89311,-1.10268 z m 6.20474,-0.23841 c -0.13388,-0.14752 -2.44991,-2.85877 -5.14672,-6.025 -3.52508,-4.13867 -4.90329,-5.83796 -4.90329,-6.0456 0,-0.42368 0.40811,-0.60808 0.79081,-0.35733 0.1639,0.10739 3.43747,2.74375 7.27463,5.85857 3.83716,3.11483 6.9926,5.6459 7.01209,5.62461 0.0195,-0.0213 -2.25189,-2.79091 -5.04749,-6.1547 l -5.08292,-6.11599 -5.05374,-4.2253 c -2.779564,-2.32391 -5.072824,-4.22529 -5.096134,-4.22529 -0.0233,0 -0.0424,2.30667 -0.0424,5.12594 v 5.12593 h 0.27739 c 0.18558,0 2.735394,1.93341 7.703454,5.84119 4.08434,3.21265 7.45569,5.84119 7.4919,5.84119 0.0362,0 -0.0437,-0.1207 -0.17759,-0.26822 z M 59.394306,118.49173 c -0.26097,-0.31143 -2.5458,-3.00701 -5.07741,-5.99019 -2.915485,-3.43552 -4.602944,-5.51694 -4.60296,-5.67758 -3.1e-5,-0.32011 0.289137,-0.56694 0.576222,-0.49187 0.120942,0.0316 3.514178,2.64688 7.540528,5.81166 4.02636,3.16478 7.40111,5.81308 7.49946,5.8851 0.22595,0.16548 0.71909,0.7528 -5.23274,-6.23213 -2.76053,-3.23969 -5.01914,-5.9782 -5.01914,-6.08556 0,-0.26868 0.23678,-0.4813 0.536,-0.4813 0.15237,0 3.02175,2.25003 7.35283,5.76576 3.90662,3.17117 7.17639,5.80836 7.26616,5.86041 0.0898,0.0521 0.0511,-0.0347 -0.0859,-0.1928 -0.13704,-0.15809 -1.69971,-2.03688 -3.4726,-4.17508 l -3.22343,-3.88765 -9.3924,-7.85433 -9.392395,-7.854329 -1.641646,0.0188 c -5.238479,0.06 -11.100819,1.83151 -12.080489,3.65065 l -0.223583,0.41517 0.332639,0.58027 c 0.182951,0.31915 0.631864,0.97609 0.997584,1.45986 0.716176,0.947355 1.193001,1.362659 10.212438,8.894679 2.819266,2.35434 6.279275,5.24421 7.688908,6.42193 2.930124,2.44808 2.868924,2.36894 -1.937128,-2.50477 -3.598945,-3.64961 -3.803947,-3.90921 -3.403385,-4.30977 0.07868,-0.0787 0.226197,-0.14256 0.327822,-0.14196 0.101625,5.9e-4 3.483277,2.62913 7.514785,5.84118 4.0315,3.21206 7.34898,5.8401 7.37218,5.8401 0.0232,0 -0.17133,-0.25481 -0.4323,-0.56624 z m 26.86662,-49.590597 c -0.11319,-0.113183 -1.79522,-0.271297 -3.64565,-0.342695 -3.9361,-0.151872 -6.97805,0.51483 -8.22534,1.802747 l -0.41722,0.430819 -0.0265,16.056652 -0.0265,16.056654 6.16571,5.14299 6.16571,5.143 0.0301,-22.119869 c 0.0166,-12.165924 0.007,-22.142561 -0.0203,-22.170298 z m 29.136514,29.404228 c 12.70453,-10.615457 17.68507,-14.708869 18.27531,-15.02013 l 0.81137,-0.427865 -0.7074,-0.317464 c -2.55158,-1.145078 -4.99932,-1.378307 -7.59097,-0.723292 -1.08476,0.274161 -3.02735,1.267372 -4.00991,2.050187 -0.48269,0.384562 -6.05421,5.033615 -12.38117,10.331224 -6.32695,5.297615 -11.677894,9.737709 -11.890984,9.866879 l -0.38742,0.23485 v 4.47699 c 0,4.25216 0.0105,4.46806 0.20861,4.29894 0.11474,-0.0979 8.067384,-6.74457 17.672564,-14.770319 z m -83.68423,-5.89099 c 1.968615,-0.98962 5.40789,-1.885987 8.464072,-2.205967 2.484431,-0.26012 2.268216,-0.19726 2.171232,-0.63123 -0.0468,-0.209424 -0.08328,-0.917205 -0.08106,-1.572849 0.0038,-1.12991 0.02734,-1.240182 0.450806,-2.114477 0.573836,-1.184739 1.42377,-2.062743 2.516474,-2.599584 l 0.825573,-0.405601 -0.944781,-0.443521 c -1.68956,-0.793152 -3.675064,-1.116233 -5.634717,-0.916879 -4.522666,0.460086 -8.302781,3.730606 -9.442326,8.169411 -0.246214,0.95906 -0.445816,3.316867 -0.310617,3.669187 0.06627,0.1727 0.140235,0.15361 0.583742,-0.15072 0.27932,-0.19166 0.910041,-0.55066 1.401602,-0.79777 z M 76.833706,66.132988 c 2.32343,-0.55814 6.33668,-0.634843 9.35781,-0.178852 0.41246,0.06225 0.42118,0.05442 0.76314,-0.684724 0.46491,-1.004905 1.59555,-2.13305 2.59773,-2.591997 l 0.7518,-0.344287 -0.92605,-0.430897 c -1.53219,-0.712942 -2.64017,-0.946156 -4.49791,-0.946744 -2.44136,-7.74e-4 -4.28921,0.546884 -6.21333,1.841477 -0.93621,0.629898 -2.27973,1.97321 -2.87655,2.876088 -0.52062,0.787607 -0.53949,0.868517 -0.17852,0.765543 0.14751,-0.04208 0.69736,-0.179607 1.22188,-0.305607 z"
         id="path23"
         inkscape:connector-curvature="0" />
    </g>
    <text
       xml:space="preserve"
       style="font-style:normal;font-variant:normal;font-weight:normal;font-stretch:normal;font-size:22.21425247px;line-height:100%;font-family:Montserrat;-inkscape-font-specification:Montserrat;letter-spacing:0px;word-spacing:0px;fill:#df3f3f;fill-opacity:1;stroke:none;stroke-width:0.34709769px;stroke-linecap:butt;stroke-linejoin:miter;stroke-opacity:1"
       x="54.602852"
       y="36.470066"
       id="text840"><tspan
         sodipodi:role="line"
         id="tspan838"
         x="54.602852"
         y="36.470066"
         style="font-style:normal;font-variant:normal;font-weight:600;font-stretch:normal;font-size:22.21425247px;line-height:100%;font-family:Montserrat;-inkscape-font-specification:'Montserrat Semi-Bold';fill:#df3f3f;fill-opacity:1;stroke-width:0.34709769px">CRAFT</tspan><tspan
         sodipodi:role="line"
         x="54.602852"
         y="58.684319"
         style="font-style:normal;font-variant:normal;font-weight:600;font-stretch:normal;font-size:22.21425247px;line-height:100%;font-family:Montserrat;-inkscape-font-specification:'Montserrat Semi-Bold';fill:#df3f3f;fill-opacity:1;stroke-width:0.34709769px"
         id="tspan842">PROSPECT</tspan></text>
  </g>
</svg>
